<?xml version="1.0" encoding="UTF-8"?><svg xmlns="http://www.w3.org/2000/svg" xmlns:xlink="http://www.w3.org/1999/xlink" viewBox="0 0 477.27 522.31"><defs><style>.cls-1{fill:#1aa7ec;}.cls-2{isolation:isolate;}.cls-3{fill:#fff;mix-blend-mode:overlay;opacity:.5;}.cls-3,.cls-4{fill-rule:evenodd;}.cls-5{fill:url(#Gradiente_sem_nome_10);}.cls-6{clip-path:url(#clippath);}.cls-7{fill:none;}.cls-8,.cls-4{fill:#4adede;}.cls-9{fill:#1e2f97;}</style><linearGradient id="Gradiente_sem_nome_10" x1="0" y1="261.15" x2="477.27" y2="261.15" gradientUnits="userSpaceOnUse"><stop offset="0" stop-color="#1e2f97"/><stop offset="1" stop-color="#1aa7ec"/></linearGradient><clipPath id="clippath"><path class="cls-7" d="M454.12,7.62l-179.56,454.47c-3.99,10.1-18.28,10.1-22.27,0L142.83,185.07l-.19,.11-.04-.11L5.97,264.27c-5.13,2.97-7.31,9.25-5.13,14.76l93.23,235.71c1.81,4.57,6.22,7.57,11.13,7.57h171.11L476.39,16.43c4.18-10.56-7.32-20.46-17.14-14.76h0c-2.33,1.35-4.14,3.45-5.13,5.96Z"/></clipPath></defs><g class="cls-2"><g id="Camada_2"><g id="Layer_1"><g><path class="cls-5" d="M454.12,7.62l-179.56,454.47c-3.99,10.1-18.28,10.1-22.27,0L142.83,185.07l-.19,.11-.04-.11L5.97,264.27c-5.13,2.97-7.31,9.25-5.13,14.76l93.23,235.71c1.81,4.57,6.22,7.57,11.13,7.57h171.11L476.39,16.43c4.18-10.56-7.32-20.46-17.14-14.76h0c-2.33,1.35-4.14,3.45-5.13,5.96Z"/><path class="cls-9" d="M267.95,416.58L414.76,44.74c2.78-7.05-4.89-13.66-11.45-9.86l-10.7,6.2c-1.56,.9-2.77,2.31-3.43,3.98L248.65,400.78c-.79,2-.74,4.23,.13,6.2l4.42,9.92c2.89,6.47,12.14,6.27,14.75-.32Z"/><path class="cls-1" d="M242.08,352.43L348.37,83.23c2.78-7.05-4.89-13.66-11.45-9.86l-10.99,6.37c-1.56,.9-2.77,2.31-3.43,3.99l-99.37,252.23c-.73,1.86-.74,3.93-.03,5.8l4.07,10.61c2.61,6.81,12.23,6.85,14.91,.07Z"/><path class="cls-8" d="M217.05,286.82l65.09-165.21c2.78-7.05-4.9-13.66-11.46-9.85l-10.84,6.28c-1.56,.9-2.77,2.31-3.43,3.98l-58.4,147.89c-.73,1.85-.75,3.9-.05,5.76l4.15,11.03c2.58,6.85,12.25,6.93,14.93,.12Z"/><path class="cls-4" d="M127.83,236.15l-8.84,29.39,60.31-32.38c3.89-2.09,5.35-6.94,3.26-10.83l-12.96-24.15c-2.09-3.89-6.94-5.35-10.83-3.26l-60.31,32.38,29.38,8.85Z"/><g class="cls-6"><path class="cls-3" d="M365.1,392.76c-.25-1.48-.38-3.01-.38-4.53,0-5.68,1.69-10.96,4.6-15.39-3.36-4.77-6.6-9.64-9.67-14.61-24.64-39.81-40.02-85.97-43.03-135.46-5.06-1.32-9.68-3.67-13.62-6.83-27.08,22.08-51.79,47.34-73.71,75.21-23.78,30.28-44.27,63.68-60.84,99.51,5.46,4.97,8.94,12.05,9.18,19.95,22.15,5.8,45.39,8.86,69.35,8.86,42.31,0,82.36-9.59,118.12-26.71M97.3,510.16c4.21-3.91,9.61-6.54,15.6-7.29,2.26-11.35,4.88-22.57,7.83-33.62,3.25-12.22,6.92-24.27,10.99-36.1-6.28-5.16-10.27-12.98-10.27-21.7l.07-1.88c-15.94-7.6-31.08-16.6-45.27-26.84-39.69-28.64-71.9-67.03-93.14-111.65-.32,5.4-.47,10.81-.47,16.26,0,75.6,30.66,144.07,80.19,193.62,10.67,10.65,22.19,20.44,34.48,29.21ZM4.77,240.88c-1.03,6.09-4,11.51-8.25,15.6,19.78,44.7,51.21,83.13,90.41,111.42,13.05,9.44,27.03,17.76,41.71,24.79,5.14-5.72,12.59-9.34,20.91-9.34l2.08,.09c17.19-37.36,38.5-72.11,63.25-103.6,22.89-29.12,48.77-55.49,77.06-78.54l-.75-1.99-6.44,.08c-39.79,0-77.75-7.98-112.32-22.39-5.11,5.21-12.23,8.46-20.12,8.46-5.07,0-9.84-1.34-13.93-3.69-38.34,30.74-83.99,51.64-133.61,59.13ZM68.32,103.46c-1.73,.34-3.48,.5-5.29,.5-3.02,0-5.92-.48-8.65-1.36C25.94,133.66,4.6,171.3-7.14,212.97c3.69,2.53,6.74,5.89,8.89,9.84,46.21-6.92,88.75-26.29,124.55-54.83-1.34-3.28-2.08-6.87-2.08-10.63,0-1.94,.2-3.84,.57-5.65-20.83-13.66-39.83-29.87-56.48-48.25ZM222.26,27.83c-4.44-2.51-8.14-6.2-10.67-10.63-45.04,7.43-86.37,25.85-121.17,52.41,.47,2.01,.71,4.08,.71,6.25,0,6.88-2.49,13.21-6.62,18.1,14.78,15.85,31.47,29.93,49.65,41.94,4.88-4.17,11.24-6.67,18.15-6.67,4.17,0,8.11,.91,11.65,2.53,25.62-29.6,45.67-64.9,58.3-103.94Zm136.06,25.51c-4-4.85-6.42-11.07-6.42-17.87,0-1.6,.14-3.16,.39-4.68-28.11-10.52-58.44-16.54-90.08-17.19-3.57,9.12-11.8,15.92-21.76,17.5-13.43,42.6-35.2,81.1-63.2,113.28,2.02,3.89,3.18,8.28,3.18,12.98,0,1-.08,2.03-.18,3.01,32.19,13.3,67.48,20.65,104.51,20.65l4.89-.06c2.67-15.83,15.44-28.25,31.44-30.35,2.51-13.3,5.91-26.27,10.13-38.87,6.91-20.6,16.05-40.15,27.11-58.4Zm94.88,69.78c-1.69-3.62-2.65-7.67-2.65-11.94,0-4.85,1.25-9.45,3.41-13.42l-3.94-4.02c-14.85-14.88-31.43-28.05-49.41-39.19-5.13,5.55-12.47,9.01-20.62,9.01-2.08,0-4.12-.22-6.05-.65-10.38,17.1-18.93,35.4-25.38,54.64-3.84,11.42-6.92,23.19-9.24,35.24,8.62,3.35,15.64,9.84,19.7,18.07,9.19-2.58,18.18-5.63,26.93-9.12,24.34-9.68,46.96-22.76,67.24-38.61Zm56.52,99.83c-7.19-5.07-11.88-13.46-11.88-22.94,0-8.57,3.84-16.27,9.93-21.43-6.1-14.09-13.36-27.55-21.63-40.29-2.4,.65-4.9,.98-7.48,.98-4.56,0-8.86-1.07-12.65-2.99-22.07,17.49-46.74,31.89-73.29,42.46-9.74,3.87-19.74,7.24-29.94,10.07-.74,16.47-12.3,30.13-27.76,34.05,3.01,45.98,17.33,88.82,40.2,125.75,2.74,4.43,5.59,8.75,8.57,13,2.84-.97,5.88-1.49,9.06-1.49,6.38,0,12.23,2.12,16.95,5.7,4-2.96,7.91-6.03,11.76-9.19,41.46-34.36,72.61-80.69,88.17-133.68Zm-51.98,249.97c-3.72-4.76-5.93-10.77-5.93-17.29,0-1.34,.08-2.69,.28-3.98-17.23-10.91-33.24-23.59-47.78-37.77-3.51,1.56-7.38,2.44-11.46,2.44-7.34,0-14-2.8-19-7.4-38.37,18.53-81.4,28.91-126.85,28.91-25.86,0-50.96-3.37-74.85-9.7-5.13,6.92-13.33,11.4-22.58,11.4h-.67c-3.84,11.28-7.34,22.75-10.45,34.38-2.87,10.73-5.41,21.63-7.59,32.69,8.19,4.91,13.69,13.9,13.69,24.15,0,2.13-.24,4.23-.7,6.23,34.34,15.5,72.45,24.16,112.59,24.16,75.6,0,144.07-30.67,193.6-80.19,2.63-2.63,5.2-5.31,7.72-8.03Zm22.15-45.38c3.72,0,7.3,.72,10.53,2.04,25.24-41.46,39.81-90.16,39.81-142.25,0-17.92-1.74-35.45-5.02-52.41-17.23,53.72-49.57,100.66-91.98,135.82-4.3,3.57-8.72,7.03-13.23,10.34,.61,2.28,.92,4.66,.92,7.13,0,4.74-1.18,9.19-3.25,13.1,13.08,12.68,27.44,24.07,42.85,33.95,5.04-4.79,11.86-7.74,19.36-7.74ZM262.96-4.73c34.58,.73,67.66,7.51,98.27,19.29,4.99-4.49,11.56-7.19,18.76-7.19,15.5,0,28.1,12.58,28.1,28.11l-.08,2.05c20.06,12.19,38.52,26.73,55.01,43.22l4.5,4.63c3.43-1.47,7.17-2.3,11.13-2.3,15.52,0,28.08,12.59,28.08,28.11,0,6.25-2.03,12.01-5.47,16.67,9.08,13.93,16.98,28.66,23.64,44.1l1.03-.02c15.5,0,28.08,12.58,28.08,28.08,0,9.74-4.92,18.32-12.45,23.35,4.6,20.6,7.04,42,7.04,63.97,0,56.75-16.22,109.73-44.19,154.56,2.27,4.05,3.58,8.75,3.58,13.73,0,15.52-12.58,28.11-28.1,28.11-2.23,0-4.42-.27-6.48-.75-3.37,3.75-6.84,7.4-10.39,10.95-52.85,52.86-125.92,85.57-206.59,85.57-43.73,0-85.2-9.61-122.45-26.83-4.82,3.87-10.89,6.16-17.55,6.16-15.5,0-28.08-12.59-28.08-28.08,0-1.43,.11-2.81,.31-4.2-13.86-9.74-26.84-20.67-38.81-32.62C-3.02,441.09-35.73,368.03-35.73,287.33c0-8.6,.38-17.15,1.11-25.58-9.7-4.42-16.42-14.2-16.42-25.56,0-14.86,11.55-27.03,26.18-28.01C-12.52,164.2,9.87,124.41,39.67,91.46c-3.02-4.46-4.74-9.82-4.74-15.59,0-15.53,12.58-28.11,28.1-28.11,6.67,0,12.79,2.33,17.61,6.22C117.39,26.26,160.89,7.01,208.26-.86c2.02-13.52,13.69-23.9,27.78-23.9,12.7,0,23.45,8.44,26.93,20.03Z"/></g></g></g></g></g></svg>