<?xml version="1.0" encoding="UTF-8"?><svg xmlns="http://www.w3.org/2000/svg" xmlns:xlink="http://www.w3.org/1999/xlink" viewBox="0 0 1235.24 360.42"><defs><style>.cls-1{fill:#1aa7ec;}.cls-2{isolation:isolate;}.cls-3{fill:#fff;mix-blend-mode:overlay;opacity:.5;}.cls-3,.cls-4{fill-rule:evenodd;}.cls-5{fill:#131f5b;}.cls-6{fill:url(#Gradiente_sem_nome_10);}.cls-7{clip-path:url(#clippath);}.cls-8{fill:none;}.cls-9,.cls-4{fill:#4adede;}.cls-10{fill:#1e2f97;}</style><linearGradient id="Gradiente_sem_nome_10" x1="0" y1="180.21" x2="329.34" y2="180.21" gradientUnits="userSpaceOnUse"><stop offset="0" stop-color="#1e2f97"/><stop offset="1" stop-color="#1aa7ec"/></linearGradient><clipPath id="clippath"><path class="cls-8" d="M313.37,5.26l-123.91,313.61c-2.75,6.97-12.61,6.97-15.37,0L98.56,127.71l-.13,.08-.03-.08L4.12,182.36c-3.54,2.05-5.04,6.38-3.54,10.19l64.33,162.65c1.25,3.15,4.29,5.22,7.68,5.22h118.07L328.73,11.34c2.88-7.29-5.05-14.12-11.83-10.19h0c-1.61,.93-2.86,2.38-3.54,4.11Z"/></clipPath></defs><g class="cls-2"><g id="Camada_2"><g id="Layer_1"><g><g><g><path class="cls-5" d="M389.39,261.75l-63.75-147.77h36.94l55.73,130.88h-21.74l56.58-130.88h33.99l-63.96,147.77h-33.78Z"/><path class="cls-5" d="M565.02,264.29c-20.97,0-37.37-5.84-49.19-17.52-11.82-11.68-17.73-28.36-17.73-50.03V113.98h34.2v81.49c0,14.07,2.88,24.21,8.65,30.4,5.77,6.19,13.86,9.29,24.28,9.29s18.5-3.09,24.28-9.29c5.77-6.19,8.66-16.32,8.66-30.4V113.98h33.78v82.75c0,21.67-5.91,38.35-17.73,50.03-11.82,11.68-28.22,17.52-49.19,17.52Z"/><path class="cls-5" d="M662.55,261.75V113.98h34.2v119.91h74.1v27.87h-108.29Z"/><path class="cls-5" d="M855.07,264.29c-11.4,0-21.99-1.87-31.77-5.59-9.78-3.73-18.26-9.04-25.44-15.94-7.18-6.89-12.77-14.99-16.78-24.28-4.01-9.29-6.02-19.49-6.02-30.61s2-21.32,6.02-30.61c4.01-9.29,9.64-17.38,16.89-24.28,7.25-6.89,15.73-12.21,25.44-15.94,9.71-3.73,20.33-5.59,31.88-5.59,12.8,0,24.38,2.22,34.73,6.65,10.34,4.43,19.03,10.94,26.07,19.53l-21.95,20.27c-5.07-5.77-10.7-10.1-16.89-12.98-6.19-2.88-12.95-4.33-20.27-4.33-6.9,0-13.23,1.13-19,3.38-5.77,2.25-10.77,5.49-14.99,9.71s-7.49,9.22-9.82,14.99c-2.32,5.77-3.48,12.17-3.48,19.21s1.16,13.44,3.48,19.21c2.32,5.77,5.59,10.77,9.82,14.99,4.22,4.22,9.22,7.46,14.99,9.71,5.77,2.25,12.1,3.38,19,3.38,7.32,0,14.07-1.44,20.27-4.33,6.19-2.88,11.82-7.28,16.89-13.19l21.95,20.27c-7.04,8.59-15.73,15.13-26.07,19.63-10.34,4.5-21.99,6.75-34.94,6.75Z"/><path class="cls-5" d="M913.55,261.75l65.86-147.77h33.78l66.07,147.77h-35.89l-54.04-130.46h13.51l-54.25,130.46h-35.04Zm32.93-31.67l9.08-25.97h76l9.29,25.97h-94.36Z"/><path class="cls-5" d="M1091.5,261.75V113.98h28.29l87.18,106.39h-13.72V113.98h33.78v147.77h-28.08l-87.4-106.39h13.72v106.39h-33.78Z"/></g><g><path class="cls-1" d="M345.29,312.65h13.16v16.28c-3.45,1.46-7.33,2.2-11.65,2.2-5.63,0-9.95-1.59-12.95-4.77-3-3.18-4.5-7.69-4.5-13.51,0-3.63,.74-6.85,2.23-9.66s3.62-4.98,6.4-6.51c2.77-1.53,5.96-2.29,9.56-2.29,3.89,0,7.38,.72,10.47,2.15l-1,2.25c-3.09-1.43-6.3-2.15-9.62-2.15-4.7,0-8.44,1.45-11.19,4.36s-4.14,6.82-4.14,11.76c0,5.37,1.31,9.41,3.93,12.12,2.62,2.71,6.47,4.06,11.55,4.06,3.29,0,6.08-.46,8.37-1.39v-12.55h-10.62v-2.34Z"/><path class="cls-1" d="M381.26,331.13c-3.86,0-6.86-1.19-9.02-3.56-2.16-2.38-3.23-5.7-3.23-9.99s1.04-7.62,3.12-10.17c2.08-2.55,4.89-3.82,8.42-3.82,3.12,0,5.59,1.09,7.4,3.27,1.81,2.18,2.71,5.14,2.71,8.89v1.95h-19.12c.03,3.65,.88,6.43,2.55,8.35,1.67,1.92,4.06,2.88,7.17,2.88,1.51,0,2.84-.11,3.99-.32,1.15-.21,2.6-.67,4.36-1.37v2.2c-1.5,.65-2.88,1.09-4.15,1.33s-2.67,.35-4.2,.35Zm-.71-25.39c-2.56,0-4.61,.84-6.15,2.53-1.55,1.68-2.45,4.11-2.71,7.29h16.41c0-3.08-.67-5.48-2-7.21-1.33-1.73-3.18-2.6-5.54-2.6Z"/><path class="cls-1" d="M412.18,303.59c1.12,0,2.33,.11,3.61,.34l-.46,2.32c-1.11-.28-2.25-.42-3.44-.42-2.26,0-4.12,.96-5.57,2.88-1.45,1.92-2.17,4.35-2.17,7.28v14.65h-2.42v-26.54h2.05l.24,4.79h.17c1.09-1.95,2.25-3.32,3.49-4.11,1.24-.79,2.73-1.18,4.49-1.18Z"/><path class="cls-1" d="M435.66,331.13c-3.86,0-6.86-1.19-9.02-3.56-2.16-2.38-3.23-5.7-3.23-9.99s1.04-7.62,3.12-10.17c2.08-2.55,4.89-3.82,8.42-3.82,3.12,0,5.59,1.09,7.4,3.27,1.81,2.18,2.71,5.14,2.71,8.89v1.95h-19.12c.03,3.65,.88,6.43,2.55,8.35,1.67,1.92,4.06,2.88,7.17,2.88,1.51,0,2.84-.11,3.99-.32,1.15-.21,2.6-.67,4.36-1.37v2.2c-1.5,.65-2.88,1.09-4.15,1.33s-2.67,.35-4.2,.35Zm-.71-25.39c-2.56,0-4.61,.84-6.15,2.53-1.55,1.68-2.45,4.11-2.71,7.29h16.41c0-3.08-.67-5.48-2-7.21-1.33-1.73-3.18-2.6-5.54-2.6Z"/><path class="cls-1" d="M474.64,330.64v-17.21c0-2.67-.56-4.61-1.68-5.82-1.12-1.21-2.86-1.82-5.22-1.82-3.17,0-5.5,.8-6.97,2.4-1.47,1.6-2.21,4.2-2.21,7.8v14.65h-2.42v-26.54h2.05l.46,3.64h.15c1.73-2.77,4.79-4.15,9.2-4.15,6.02,0,9.03,3.23,9.03,9.69v17.36h-2.39Z"/><path class="cls-1" d="M499.97,331.13c-3.79,0-6.76-1.2-8.91-3.59s-3.22-5.73-3.22-10.01,1.11-7.82,3.34-10.27c2.23-2.45,5.28-3.67,9.16-3.67,2.29,0,4.49,.4,6.59,1.2l-.66,2.15c-2.29-.76-4.29-1.15-5.98-1.15-3.26,0-5.72,1.01-7.4,3.02-1.68,2.01-2.51,4.9-2.51,8.68,0,3.58,.84,6.38,2.51,8.41,1.68,2.03,4.02,3.04,7.03,3.04,2.41,0,4.65-.43,6.71-1.29v2.25c-1.69,.83-3.91,1.25-6.67,1.25Z"/><path class="cls-1" d="M516.54,296.73c0-1.56,.51-2.34,1.54-2.34,.5,0,.9,.2,1.18,.61,.28,.41,.43,.98,.43,1.73s-.14,1.31-.43,1.73c-.29,.42-.68,.63-1.18,.63-1.03,0-1.54-.79-1.54-2.37Zm2.76,33.91h-2.42v-26.54h2.42v26.54Z"/><path class="cls-1" d="M548.05,330.64l-.61-4.2h-.2c-1.33,1.71-2.71,2.92-4.11,3.63-1.41,.71-3.07,1.06-4.99,1.06-2.6,0-4.63-.67-6.08-2-1.45-1.33-2.17-3.18-2.17-5.54,0-2.59,1.08-4.6,3.23-6.03,2.16-1.43,5.28-2.19,9.36-2.27l5.05-.15v-1.76c0-2.52-.51-4.43-1.54-5.71-1.03-1.29-2.68-1.93-4.96-1.93-2.46,0-5,.68-7.64,2.05l-.9-2.1c2.91-1.37,5.79-2.05,8.64-2.05s5.09,.76,6.53,2.27,2.16,3.87,2.16,7.08v17.65h-1.78Zm-9.77-1.71c2.83,0,5.07-.81,6.7-2.43,1.64-1.62,2.45-3.87,2.45-6.75v-2.61l-4.64,.2c-3.73,.18-6.38,.76-7.97,1.75-1.59,.98-2.38,2.52-2.38,4.6,0,1.66,.51,2.95,1.53,3.87,1.02,.92,2.45,1.38,4.31,1.38Z"/><path class="cls-1" d="M595.33,330.64v-17.41c0-2.59-.5-4.48-1.51-5.66-1.01-1.19-2.56-1.78-4.64-1.78-2.72,0-4.73,.75-6.03,2.25-1.3,1.5-1.95,3.85-1.95,7.06v15.55h-2.47v-18.14c0-4.48-2.05-6.71-6.15-6.71-2.78,0-4.81,.81-6.08,2.43-1.27,1.62-1.9,4.21-1.9,7.78v14.65h-2.42v-26.54h2l.51,3.64h.15c.73-1.32,1.77-2.34,3.12-3.06,1.35-.72,2.84-1.09,4.47-1.09,4.18,0,6.87,1.57,8.06,4.71h.1c.86-1.51,2.02-2.68,3.48-3.49,1.46-.81,3.11-1.22,4.97-1.22,2.9,0,5.07,.77,6.52,2.32,1.45,1.55,2.17,4,2.17,7.37v17.36h-2.39Z"/><path class="cls-1" d="M620.78,331.13c-3.86,0-6.86-1.19-9.02-3.56-2.16-2.38-3.23-5.7-3.23-9.99s1.04-7.62,3.12-10.17c2.08-2.55,4.89-3.82,8.42-3.82,3.12,0,5.59,1.09,7.4,3.27,1.81,2.18,2.71,5.14,2.71,8.89v1.95h-19.12c.03,3.65,.88,6.43,2.55,8.35,1.67,1.92,4.06,2.88,7.17,2.88,1.51,0,2.84-.11,3.99-.32,1.15-.21,2.6-.67,4.36-1.37v2.2c-1.5,.65-2.88,1.09-4.15,1.33s-2.67,.35-4.2,.35Zm-.71-25.39c-2.56,0-4.61,.84-6.15,2.53-1.55,1.68-2.45,4.11-2.71,7.29h16.41c0-3.08-.67-5.48-2-7.21-1.33-1.73-3.18-2.6-5.54-2.6Z"/><path class="cls-1" d="M659.76,330.64v-17.21c0-2.67-.56-4.61-1.68-5.82-1.12-1.21-2.86-1.82-5.22-1.82-3.17,0-5.5,.8-6.97,2.4-1.47,1.6-2.21,4.2-2.21,7.8v14.65h-2.42v-26.54h2.05l.46,3.64h.15c1.73-2.77,4.79-4.15,9.2-4.15,6.02,0,9.03,3.23,9.03,9.69v17.36h-2.39Z"/><path class="cls-1" d="M681.51,328.98c1.53,0,2.86-.13,4-.39v1.95c-1.17,.39-2.52,.59-4.05,.59-2.34,0-4.07-.63-5.19-1.88-1.12-1.25-1.67-3.22-1.67-5.91v-17.14h-3.93v-1.42l3.93-1.1,1.22-6.01h1.25v6.42h7.79v2.1h-7.79v16.8c0,2.03,.36,3.54,1.07,4.52,.72,.98,1.84,1.46,3.37,1.46Z"/><path class="cls-1" d="M716.95,317.34c0,4.33-1.05,7.71-3.15,10.14-2.1,2.43-5,3.65-8.69,3.65-2.33,0-4.38-.56-6.15-1.68-1.77-1.12-3.13-2.73-4.08-4.83-.94-2.1-1.42-4.52-1.42-7.28,0-4.33,1.05-7.7,3.15-10.12s4.98-3.63,8.64-3.63,6.51,1.23,8.58,3.67c2.08,2.45,3.11,5.81,3.11,10.07Zm-20.95,0c0,3.65,.8,6.49,2.4,8.53,1.6,2.04,3.87,3.06,6.8,3.06s5.2-1.02,6.8-3.06c1.6-2.04,2.4-4.89,2.4-8.53s-.81-6.5-2.43-8.52c-1.62-2.02-3.89-3.03-6.82-3.03s-5.19,1.01-6.77,3.02c-1.59,2.01-2.38,4.85-2.38,8.53Z"/><path class="cls-1" d="M754.5,303.59c1.92,0,3.58,.35,4.98,1.05,1.4,.7,2.65,1.9,3.76,3.59h.15c-.1-2.05-.15-4.06-.15-6.03v-9.55h2.39v37.99h-1.59l-.61-4.05h-.2c-2.02,3.03-4.92,4.54-8.69,4.54s-6.46-1.14-8.4-3.42c-1.94-2.28-2.91-5.6-2.91-9.96,0-4.59,.96-8.1,2.88-10.52,1.92-2.42,4.71-3.64,8.37-3.64Zm0,2.2c-2.9,0-5.07,1.02-6.53,3.05-1.46,2.03-2.19,4.99-2.19,8.86,0,7.52,2.92,11.28,8.76,11.28,2.99,0,5.19-.87,6.59-2.61,1.4-1.74,2.1-4.61,2.1-8.62v-.42c0-4.1-.69-7.05-2.06-8.85-1.38-1.8-3.6-2.7-6.68-2.7Z"/><path class="cls-1" d="M789.01,331.13c-3.86,0-6.86-1.19-9.02-3.56-2.16-2.38-3.23-5.7-3.23-9.99s1.04-7.62,3.12-10.17c2.08-2.55,4.89-3.82,8.42-3.82,3.12,0,5.59,1.09,7.4,3.27,1.81,2.18,2.71,5.14,2.71,8.89v1.95h-19.12c.03,3.65,.88,6.43,2.55,8.35,1.67,1.92,4.06,2.88,7.17,2.88,1.51,0,2.84-.11,3.99-.32,1.15-.21,2.6-.67,4.36-1.37v2.2c-1.5,.65-2.88,1.09-4.15,1.33s-2.67,.35-4.2,.35Zm-.71-25.39c-2.56,0-4.61,.84-6.15,2.53-1.55,1.68-2.45,4.11-2.71,7.29h16.41c0-3.08-.67-5.48-2-7.21-1.33-1.73-3.18-2.6-5.54-2.6Z"/><path class="cls-1" d="M835.94,303.59c1.92,0,3.58,.35,4.98,1.05,1.4,.7,2.65,1.9,3.76,3.59h.15c-.1-2.05-.15-4.06-.15-6.03v-9.55h2.39v37.99h-1.59l-.61-4.05h-.2c-2.02,3.03-4.92,4.54-8.69,4.54s-6.46-1.14-8.4-3.42c-1.94-2.28-2.91-5.6-2.91-9.96,0-4.59,.96-8.1,2.88-10.52,1.92-2.42,4.71-3.64,8.37-3.64Zm0,2.2c-2.9,0-5.07,1.02-6.53,3.05-1.46,2.03-2.19,4.99-2.19,8.86,0,7.52,2.92,11.28,8.76,11.28,2.99,0,5.19-.87,6.59-2.61,1.4-1.74,2.1-4.61,2.1-8.62v-.42c0-4.1-.69-7.05-2.06-8.85-1.38-1.8-3.6-2.7-6.68-2.7Z"/><path class="cls-1" d="M875.85,330.64l-.61-4.2h-.2c-1.33,1.71-2.71,2.92-4.11,3.63-1.41,.71-3.07,1.06-4.99,1.06-2.6,0-4.63-.67-6.08-2-1.45-1.33-2.17-3.18-2.17-5.54,0-2.59,1.08-4.6,3.23-6.03,2.16-1.43,5.28-2.19,9.36-2.27l5.05-.15v-1.76c0-2.52-.51-4.43-1.54-5.71-1.03-1.29-2.68-1.93-4.96-1.93-2.46,0-5,.68-7.64,2.05l-.9-2.1c2.91-1.37,5.79-2.05,8.64-2.05s5.09,.76,6.53,2.27,2.16,3.87,2.16,7.08v17.65h-1.78Zm-9.77-1.71c2.83,0,5.07-.81,6.7-2.43,1.64-1.62,2.45-3.87,2.45-6.75v-2.61l-4.64,.2c-3.73,.18-6.38,.76-7.97,1.75-1.59,.98-2.38,2.52-2.38,4.6,0,1.66,.51,2.95,1.53,3.87,1.02,.92,2.45,1.38,4.31,1.38Z"/><path class="cls-1" d="M899.69,303.59c1.92,0,3.58,.35,4.98,1.05,1.4,.7,2.65,1.9,3.76,3.59h.15c-.1-2.05-.15-4.06-.15-6.03v-9.55h2.39v37.99h-1.59l-.61-4.05h-.2c-2.02,3.03-4.92,4.54-8.69,4.54s-6.46-1.14-8.4-3.42c-1.94-2.28-2.91-5.6-2.91-9.96,0-4.59,.96-8.1,2.88-10.52,1.92-2.42,4.71-3.64,8.37-3.64Zm0,2.2c-2.9,0-5.07,1.02-6.53,3.05-1.46,2.03-2.19,4.99-2.19,8.86,0,7.52,2.92,11.28,8.76,11.28,2.99,0,5.19-.87,6.59-2.61,1.4-1.74,2.1-4.61,2.1-8.62v-.42c0-4.1-.69-7.05-2.06-8.85-1.38-1.8-3.6-2.7-6.68-2.7Z"/><path class="cls-1" d="M945.43,317.34c0,4.33-1.05,7.71-3.15,10.14-2.1,2.43-5,3.65-8.69,3.65-2.33,0-4.38-.56-6.15-1.68-1.77-1.12-3.13-2.73-4.08-4.83-.94-2.1-1.42-4.52-1.42-7.28,0-4.33,1.05-7.7,3.15-10.12s4.98-3.63,8.64-3.63,6.51,1.23,8.58,3.67c2.08,2.45,3.11,5.81,3.11,10.07Zm-20.95,0c0,3.65,.8,6.49,2.4,8.53,1.6,2.04,3.87,3.06,6.8,3.06s5.2-1.02,6.8-3.06c1.6-2.04,2.4-4.89,2.4-8.53s-.81-6.5-2.43-8.52c-1.62-2.02-3.89-3.03-6.82-3.03s-5.19,1.01-6.77,3.02c-1.59,2.01-2.38,4.85-2.38,8.53Z"/><path class="cls-1" d="M972.99,323.73c0,2.38-.9,4.2-2.71,5.48-1.81,1.28-4.37,1.92-7.69,1.92-3.55,0-6.36-.54-8.45-1.64v-2.61c2.67,1.33,5.48,2,8.45,2,2.62,0,4.61-.44,5.97-1.31,1.36-.87,2.04-2.03,2.04-3.48,0-1.33-.54-2.46-1.62-3.37-1.08-.91-2.86-1.81-5.33-2.69-2.65-.96-4.52-1.79-5.59-2.48-1.07-.69-1.88-1.47-2.43-2.34-.55-.87-.82-1.93-.82-3.19,0-1.99,.83-3.56,2.5-4.71,1.67-1.16,4-1.73,6.99-1.73s5.58,.54,8.15,1.61l-.9,2.2c-2.6-1.07-5.02-1.61-7.25-1.61s-3.88,.36-5.15,1.07c-1.27,.72-1.9,1.71-1.9,2.98,0,1.38,.49,2.49,1.48,3.32,.98,.83,2.91,1.76,5.77,2.78,2.39,.86,4.13,1.64,5.22,2.33,1.09,.69,1.91,1.48,2.45,2.36,.54,.88,.82,1.91,.82,3.1Z"/><path class="cls-1" d="M1011.03,331.13c-3.86,0-6.86-1.19-9.02-3.56-2.16-2.38-3.23-5.7-3.23-9.99s1.04-7.62,3.12-10.17c2.08-2.55,4.89-3.82,8.42-3.82,3.12,0,5.59,1.09,7.4,3.27,1.81,2.18,2.71,5.14,2.71,8.89v1.95h-19.12c.03,3.65,.88,6.43,2.55,8.35,1.67,1.92,4.06,2.88,7.17,2.88,1.51,0,2.84-.11,3.99-.32,1.15-.21,2.6-.67,4.36-1.37v2.2c-1.5,.65-2.88,1.09-4.15,1.33s-2.67,.35-4.2,.35Zm-.71-25.39c-2.56,0-4.61,.84-6.15,2.53-1.55,1.68-2.45,4.11-2.71,7.29h16.41c0-3.08-.67-5.48-2-7.21-1.33-1.73-3.18-2.6-5.54-2.6Z"/><path class="cls-1" d="M1047.96,323.73c0,2.38-.9,4.2-2.71,5.48-1.81,1.28-4.37,1.92-7.69,1.92-3.55,0-6.36-.54-8.45-1.64v-2.61c2.67,1.33,5.48,2,8.45,2,2.62,0,4.61-.44,5.97-1.31,1.36-.87,2.04-2.03,2.04-3.48,0-1.33-.54-2.46-1.62-3.37-1.08-.91-2.86-1.81-5.33-2.69-2.65-.96-4.52-1.79-5.59-2.48-1.07-.69-1.88-1.47-2.43-2.34-.55-.87-.82-1.93-.82-3.19,0-1.99,.83-3.56,2.5-4.71,1.67-1.16,4-1.73,6.99-1.73s5.58,.54,8.15,1.61l-.9,2.2c-2.6-1.07-5.02-1.61-7.25-1.61s-3.88,.36-5.15,1.07c-1.27,.72-1.9,1.71-1.9,2.98,0,1.38,.49,2.49,1.48,3.32,.98,.83,2.91,1.76,5.77,2.78,2.39,.86,4.13,1.64,5.22,2.33,1.09,.69,1.91,1.48,2.45,2.36,.54,.88,.82,1.91,.82,3.1Z"/><path class="cls-1" d="M1069.14,331.13c-3.79,0-6.76-1.2-8.91-3.59s-3.22-5.73-3.22-10.01,1.11-7.82,3.34-10.27c2.23-2.45,5.28-3.67,9.16-3.67,2.29,0,4.49,.4,6.59,1.2l-.66,2.15c-2.29-.76-4.29-1.15-5.98-1.15-3.26,0-5.72,1.01-7.4,3.02-1.68,2.01-2.51,4.9-2.51,8.68,0,3.58,.84,6.38,2.51,8.41,1.68,2.03,4.02,3.04,7.03,3.04,2.41,0,4.65-.43,6.71-1.29v2.25c-1.69,.83-3.91,1.25-6.67,1.25Z"/><path class="cls-1" d="M1108,317.34c0,4.33-1.05,7.71-3.15,10.14-2.1,2.43-5,3.65-8.69,3.65-2.33,0-4.38-.56-6.15-1.68-1.77-1.12-3.13-2.73-4.08-4.83-.94-2.1-1.42-4.52-1.42-7.28,0-4.33,1.05-7.7,3.15-10.12s4.98-3.63,8.64-3.63,6.51,1.23,8.58,3.67c2.08,2.45,3.11,5.81,3.11,10.07Zm-20.95,0c0,3.65,.8,6.49,2.4,8.53,1.6,2.04,3.87,3.06,6.8,3.06s5.2-1.02,6.8-3.06c1.6-2.04,2.4-4.89,2.4-8.53s-.81-6.5-2.43-8.52c-1.62-2.02-3.89-3.03-6.82-3.03s-5.19,1.01-6.77,3.02c-1.59,2.01-2.38,4.85-2.38,8.53Z"/><path class="cls-1" d="M1121.51,330.64h-2.42v-37.99h2.42v37.99Z"/><path class="cls-1" d="M1150.26,330.64l-.61-4.2h-.2c-1.33,1.71-2.71,2.92-4.11,3.63-1.41,.71-3.07,1.06-4.99,1.06-2.6,0-4.63-.67-6.08-2-1.45-1.33-2.17-3.18-2.17-5.54,0-2.59,1.08-4.6,3.23-6.03,2.16-1.43,5.28-2.19,9.36-2.27l5.05-.15v-1.76c0-2.52-.51-4.43-1.54-5.71-1.03-1.29-2.68-1.93-4.96-1.93-2.46,0-5,.68-7.64,2.05l-.9-2.1c2.91-1.37,5.79-2.05,8.64-2.05s5.09,.76,6.53,2.27,2.16,3.87,2.16,7.08v17.65h-1.78Zm-9.77-1.71c2.83,0,5.07-.81,6.7-2.43,1.64-1.62,2.45-3.87,2.45-6.75v-2.61l-4.64,.2c-3.73,.18-6.38,.76-7.97,1.75-1.59,.98-2.38,2.52-2.38,4.6,0,1.66,.51,2.95,1.53,3.87,1.02,.92,2.45,1.38,4.31,1.38Z"/><path class="cls-1" d="M1174.84,303.59c1.12,0,2.33,.11,3.61,.34l-.46,2.32c-1.11-.28-2.25-.42-3.44-.42-2.26,0-4.12,.96-5.57,2.88-1.45,1.92-2.17,4.35-2.17,7.28v14.65h-2.42v-26.54h2.05l.24,4.79h.17c1.09-1.95,2.25-3.32,3.49-4.11,1.24-.79,2.73-1.18,4.49-1.18Z"/><path class="cls-1" d="M1198.31,331.13c-3.86,0-6.86-1.19-9.02-3.56-2.16-2.38-3.23-5.7-3.23-9.99s1.04-7.62,3.12-10.17c2.08-2.55,4.89-3.82,8.42-3.82,3.12,0,5.59,1.09,7.4,3.27,1.81,2.18,2.71,5.14,2.71,8.89v1.95h-19.12c.03,3.65,.88,6.43,2.55,8.35,1.67,1.92,4.06,2.88,7.17,2.88,1.51,0,2.84-.11,3.99-.32,1.15-.21,2.6-.67,4.36-1.37v2.2c-1.5,.65-2.88,1.09-4.15,1.33s-2.67,.35-4.2,.35Zm-.71-25.39c-2.56,0-4.61,.84-6.15,2.53-1.55,1.68-2.45,4.11-2.71,7.29h16.41c0-3.08-.67-5.48-2-7.21-1.33-1.73-3.18-2.6-5.54-2.6Z"/><path class="cls-1" d="M1235.24,323.73c0,2.38-.9,4.2-2.71,5.48-1.81,1.28-4.37,1.92-7.69,1.92-3.55,0-6.36-.54-8.45-1.64v-2.61c2.67,1.33,5.48,2,8.45,2,2.62,0,4.61-.44,5.97-1.31,1.36-.87,2.04-2.03,2.04-3.48,0-1.33-.54-2.46-1.62-3.37-1.08-.91-2.86-1.81-5.33-2.69-2.65-.96-4.52-1.79-5.59-2.48-1.07-.69-1.88-1.47-2.43-2.34-.55-.87-.82-1.93-.82-3.19,0-1.99,.83-3.56,2.5-4.71,1.67-1.16,4-1.73,6.99-1.73s5.58,.54,8.15,1.61l-.9,2.2c-2.6-1.07-5.02-1.61-7.25-1.61s-3.88,.36-5.15,1.07c-1.27,.72-1.9,1.71-1.9,2.98,0,1.38,.49,2.49,1.48,3.32,.98,.83,2.91,1.76,5.77,2.78,2.39,.86,4.13,1.64,5.22,2.33,1.09,.69,1.91,1.48,2.45,2.36,.54,.88,.82,1.91,.82,3.1Z"/></g></g><g><path class="cls-6" d="M313.37,5.26l-123.91,313.61c-2.75,6.97-12.61,6.97-15.37,0L98.56,127.71l-.13,.08-.03-.08L4.12,182.36c-3.54,2.05-5.04,6.38-3.54,10.19l64.33,162.65c1.25,3.15,4.29,5.22,7.68,5.22h118.07L328.73,11.34c2.88-7.29-5.05-14.12-11.83-10.19h0c-1.61,.93-2.86,2.38-3.54,4.11Z"/><path class="cls-10" d="M184.9,287.46L286.2,30.87c1.92-4.87-3.38-9.43-7.9-6.8l-7.38,4.28c-1.08,.62-1.91,1.59-2.37,2.75l-96.97,245.46c-.55,1.38-.51,2.92,.09,4.28l3.05,6.84c1.99,4.47,8.38,4.33,10.18-.22Z"/><path class="cls-1" d="M167.05,243.19L240.39,57.43c1.92-4.87-3.38-9.43-7.9-6.8l-7.58,4.39c-1.08,.62-1.91,1.59-2.37,2.75l-68.57,174.05c-.51,1.29-.51,2.71-.02,4l2.81,7.32c1.8,4.7,8.44,4.73,10.29,.05Z"/><path class="cls-9" d="M149.77,197.92l44.91-114c1.92-4.87-3.38-9.42-7.9-6.8l-7.48,4.34c-1.08,.62-1.91,1.59-2.37,2.75l-40.3,102.05c-.5,1.27-.51,2.69-.03,3.97l2.86,7.61c1.78,4.73,8.45,4.78,10.3,.08Z"/><path class="cls-4" d="M88.21,162.95l-6.1,20.28,41.62-22.34c2.69-1.44,3.69-4.79,2.25-7.48l-8.95-16.66c-1.44-2.69-4.79-3.69-7.48-2.25l-41.62,22.34,20.27,6.11Z"/><g class="cls-7"><path class="cls-3" d="M251.94,271.02c-.17-1.02-.26-2.08-.26-3.13,0-3.92,1.16-7.57,3.17-10.62-2.32-3.29-4.56-6.65-6.67-10.08-17.01-27.47-27.62-59.32-29.69-93.47-3.49-.91-6.68-2.53-9.4-4.71-18.69,15.24-35.74,32.66-50.86,51.89-16.41,20.89-30.55,43.95-41.98,68.67,3.77,3.43,6.17,8.32,6.33,13.77,15.28,4,31.32,6.11,47.85,6.11,29.19,0,56.83-6.62,81.51-18.43m-184.8,81.01c2.9-2.7,6.63-4.51,10.77-5.03,1.56-7.83,3.36-15.57,5.4-23.2,2.24-8.44,4.78-16.75,7.58-24.91-4.34-3.56-7.08-8.95-7.08-14.98l.05-1.3c-11-5.24-21.45-11.45-31.24-18.52C25.23,244.33,3,217.84-11.66,187.06c-.22,3.72-.33,7.46-.33,11.22,0,52.17,21.16,99.42,55.33,133.6,7.36,7.35,15.31,14.1,23.79,20.16ZM3.29,166.22c-.71,4.21-2.76,7.94-5.69,10.76,13.65,30.85,35.34,57.36,62.39,76.88,9.01,6.52,18.65,12.26,28.78,17.11,3.55-3.95,8.69-6.45,14.43-6.45l1.43,.06c11.86-25.78,26.57-49.76,43.64-71.49,15.79-20.1,33.65-38.29,53.18-54.2l-.52-1.37-4.44,.05c-27.45,0-53.65-5.5-77.51-15.45-3.53,3.6-8.44,5.83-13.88,5.83-3.5,0-6.79-.93-9.61-2.55-26.45,21.21-57.96,35.63-92.2,40.8ZM47.15,71.39c-1.19,.24-2.4,.35-3.65,.35-2.09,0-4.09-.33-5.97-.94C17.9,92.23,3.18,118.2-4.93,146.96c2.55,1.74,4.65,4.07,6.13,6.79,31.89-4.78,61.24-18.14,85.95-37.84-.92-2.26-1.43-4.74-1.43-7.33,0-1.34,.13-2.65,.39-3.9-14.37-9.43-27.48-20.61-38.97-33.29ZM153.37,19.21c-3.07-1.73-5.61-4.28-7.36-7.33-31.08,5.12-59.6,17.84-83.61,36.17,.33,1.38,.49,2.82,.49,4.32,0,4.75-1.72,9.11-4.57,12.49,10.2,10.93,21.72,20.65,34.26,28.94,3.36-2.88,7.76-4.6,12.53-4.6,2.87,0,5.59,.63,8.04,1.74,17.68-20.42,31.51-44.79,40.23-71.73Zm93.89,17.6c-2.76-3.35-4.43-7.64-4.43-12.33,0-1.1,.1-2.18,.27-3.23-19.4-7.26-40.33-11.42-62.16-11.86-2.46,6.3-8.14,10.98-15.02,12.07-9.27,29.4-24.29,55.97-43.61,78.17,1.39,2.68,2.19,5.71,2.19,8.95,0,.69-.06,1.4-.13,2.08,22.22,9.18,46.56,14.25,72.12,14.25l3.37-.04c1.85-10.92,10.65-19.49,21.7-20.94,1.73-9.18,4.08-18.13,6.99-26.82,4.77-14.21,11.07-27.7,18.71-40.3Zm65.47,48.15c-1.16-2.5-1.83-5.29-1.83-8.24,0-3.35,.87-6.52,2.36-9.26l-2.72-2.77c-10.25-10.27-21.69-19.36-34.1-27.05-3.54,3.83-8.6,6.22-14.23,6.22-1.43,0-2.85-.15-4.17-.45-7.16,11.8-13.06,24.43-17.51,37.7-2.65,7.88-4.78,16-6.37,24.32,5.95,2.31,10.8,6.79,13.59,12.47,6.34-1.78,12.54-3.88,18.58-6.3,16.79-6.68,32.4-15.71,46.4-26.64Zm39,68.89c-4.96-3.5-8.2-9.29-8.2-15.83,0-5.91,2.65-11.23,6.85-14.79-4.21-9.72-9.22-19.01-14.93-27.81-1.65,.45-3.38,.68-5.16,.68-3.14,0-6.11-.74-8.73-2.06-15.23,12.07-32.25,22-50.57,29.3-6.72,2.67-13.62,4.99-20.66,6.95-.51,11.37-8.49,20.79-19.16,23.5,2.08,31.73,11.96,61.29,27.74,86.78,1.89,3.06,3.85,6.04,5.91,8.97,1.96-.67,4.06-1.03,6.25-1.03,4.4,0,8.44,1.46,11.7,3.94,2.76-2.04,5.46-4.16,8.11-6.34,28.61-23.71,50.1-55.68,60.84-92.24Zm-35.87,172.49c-2.57-3.29-4.1-7.43-4.1-11.93,0-.93,.06-1.86,.19-2.74-11.89-7.53-22.94-16.28-32.97-26.06-2.42,1.08-5.09,1.68-7.91,1.68-5.07,0-9.66-1.93-13.11-5.11-26.47,12.79-56.17,19.95-87.53,19.95-17.84,0-35.16-2.33-51.65-6.69-3.54,4.77-9.2,7.86-15.58,7.86h-.46c-2.65,7.78-5.07,15.7-7.21,23.72-1.98,7.41-3.73,14.93-5.24,22.56,5.65,3.39,9.45,9.59,9.45,16.66,0,1.47-.16,2.92-.48,4.3,23.7,10.7,50,16.67,77.69,16.67,52.17,0,99.42-21.16,133.59-55.34,1.82-1.82,3.59-3.66,5.33-5.54Zm15.28-31.31c2.57,0,5.04,.5,7.27,1.41,17.42-28.61,27.47-62.21,27.47-98.16,0-12.37-1.2-24.46-3.46-36.16-11.89,37.07-34.2,69.46-63.47,93.73-2.97,2.47-6.02,4.85-9.13,7.14,.42,1.57,.63,3.22,.63,4.92,0,3.27-.82,6.34-2.24,9.04,9.03,8.75,18.94,16.61,29.57,23.43,3.48-3.3,8.18-5.34,13.36-5.34ZM181.46-3.26c23.86,.5,46.69,5.18,67.81,13.31,3.44-3.1,7.98-4.96,12.95-4.96,10.7,0,19.39,8.68,19.39,19.39l-.06,1.42c13.84,8.41,26.58,18.44,37.96,29.82l3.1,3.19c2.36-1.01,4.95-1.59,7.68-1.59,10.71,0,19.38,8.69,19.38,19.39,0,4.32-1.4,8.29-3.78,11.5,6.27,9.61,11.72,19.78,16.31,30.43h.71c10.7-.01,19.38,8.67,19.38,19.37,0,6.72-3.39,12.64-8.59,16.12,3.17,14.21,4.85,28.98,4.85,44.14,0,39.16-11.19,75.72-30.49,106.65,1.57,2.79,2.47,6.04,2.47,9.47,0,10.71-8.68,19.39-19.39,19.39-1.54,0-3.05-.19-4.47-.52-2.33,2.59-4.72,5.11-7.17,7.56-36.47,36.48-86.89,59.05-142.56,59.05-30.17,0-58.79-6.63-84.5-18.51-3.33,2.67-7.52,4.25-12.11,4.25-10.7,0-19.38-8.69-19.38-19.38,0-.99,.08-1.94,.21-2.9-9.56-6.72-18.52-14.26-26.78-22.51C-2.08,304.37-24.65,253.96-24.65,198.27c0-5.94,.26-11.83,.77-17.65-6.69-3.05-11.33-9.8-11.33-17.63,0-10.25,7.97-18.65,18.06-19.33C-8.64,113.31,6.81,85.85,27.37,63.11c-2.09-3.08-3.27-6.78-3.27-10.76,0-10.71,8.68-19.39,19.39-19.39,4.6,0,8.82,1.61,12.15,4.29C81,18.12,111.02,4.83,143.71-.59c1.39-9.33,9.45-16.49,19.17-16.49,8.77,0,16.18,5.83,18.58,13.82Z"/></g></g></g></g></g></g></svg>